# xmcd
#
# Track frame offsets: 
#        150
#        9593
#        21562
#        32846
#        43713
#        47380
#        59946
#        66712
#        72577
#        81291
#        96488
#        104932
#        112106
#        120301
#        130930
#        150243
#
# Disc length: 2033 seconds
#
# Revision: 0
# Processed by: cddbd v1.5.2PL0 Copyright (c) Steve Scherf et al.
# Submitted via: ExactAudioCopy v0.99pb5
#
DISCID=f207ef10
DTITLE=Various Artist - B.W.I(British West Indies)Songs
DYEAR=2007
DGENRE=Oldies
TTITLE0=Chi-Chi Bud
TTITLE1=Madelaine
TTITLE2=Jean an' Dinah
TTITLE3=Tell Me
TTITLE4=Barbados
TTITLE5=Yo No Quiero Sucre
TTITLE6=Hill and Gully
TTITLE7=Fan Me Solja Man
TTITLE8=Day O!
TTITLE9=Mrs. Jacob
TTITLE10=Mama Poule
TTITLE11=The Story of Solomon's Grandfather
TTITLE12=De Damn Man
TTITLE13=Take Me, Take Me
TTITLE14=Docta' Bud
TTITLE15=N/A
EXTD=B.W.I. (British West Indies) Songs\nVarious Artists FW08809 \n\nC
EXTD=ountry(s) Antigua and Barbuda - Bermuda - Jamaica - Trinidad and Tob
EXTD=ago\nKeyword(s) World music\nInstrument(s) Bongo - Guitar - Maraca;
EXTD=Piano\nYear of Recording 1957\nRecord Label Folkways Records\nSo
EXTD=urce Archive Smithsonian Center for Folklife and Cultural Heritag
EXTD=e\nCredits Cover artwork by Irwin Rosenhouse 
EXTT0=
EXTT1=
EXTT2=
EXTT3=
EXTT4=
EXTT5=
EXTT6=
EXTT7=
EXTT8=
EXTT9=
EXTT10=
EXTT11=
EXTT12=
EXTT13=
EXTT14=
EXTT15=
PLAYORDER=
